# xmcd
#
# Track frame offsets:
#        150
#        5740
#        23087
#        44460
#        61717
#        82665
#        99292
#        117340
#        133745
#        152727
#        168502
#        183032
#        197047
#        214910
#        233972
#
# Disc length: 3224 seconds
#
# Revision: 3
# Processed by: cddbd v1.5PL3 Copyright (c) Steve Scherf et al.
# Submitted via: ExactAudioCopy v0.95a4
#
DISCID=bc0c960f
DTITLE=captain jack - top secret
DYEAR=2000
DGENRE=Dance
TTITLE0=TOP SECRET [intro]
TTITLE1=HIHO [radio/video mix]
TTITLE2=MY GENERATION [fat beat mix]
TTITLE3=OH-LALALA [ratio/video mix]
TTITLE4=1-2-3 [short mix]
TTITLE5=UP&AWAY [holiday mix]
TTITLE6=LITTLE LOVE [be my baby mix]
TTITLE7=SCHOOLS OUT [short mix]
TTITLE8=FLY AWAY [sunshine mix]
TTITLE9=BOYFRIEND [take my hand mix]
TTITLE10=KALINKA [russian hit mix]
TTITLE11=ONLY YOU [radio twist mix]
TTITLE12=MY GENERATION [miami bass mix]
TTITLE13=1-2-3 [orwells mix]
TTITLE14=OUTRO-BEATZ [the end mix]
EXTD=
EXTT0=
EXTT1=
EXTT2=
EXTT3=
EXTT4=
EXTT5=
EXTT6=
EXTT7=
EXTT8=
EXTT9=
EXTT10=
EXTT11=
EXTT12=
EXTT13=
EXTT14=
PLAYORDER=
